<?xml version="1.0" standalone="no"?>
<!DOCTYPE svg PUBLIC "-//W3C//DTD SVG 20010904//EN"
 "http://www.w3.org/TR/2001/REC-SVG-20010904/DTD/svg10.dtd">
<svg version="1.0" xmlns="http://www.w3.org/2000/svg"
 width="225.000000pt" height="225.000000pt" viewBox="0 0 225.000000 225.000000"
 preserveAspectRatio="xMidYMid meet">

<g transform="translate(0.000000,225.000000) scale(0.100000,-0.100000)"
fill="#000000" stroke="none">
<path d="M975 2239 c-429 -54 -807 -380 -929 -803 -172 -593 175 -1219 772
-1392 189 -54 425 -54 615 1 522 151 866 659 808 1194 -68 634 -632 1079
-1266 1000z m260 -170 c588 -72 974 -663 798 -1224 -135 -431 -567 -716 -1007
-665 -597 69 -986 659 -809 1225 110 351 429 619 788 664 100 12 129 12 230 0z"/>
<path d="M1065 1625 c-25 -24 -25 -26 -25 -215 l0 -190 -189 0 c-185 0 -191
-1 -217 -24 -37 -31 -38 -84 -4 -121 l23 -25 194 0 193 0 0 -194 0 -194 31
-26 c39 -33 69 -33 108 0 l31 26 0 194 0 194 193 0 194 0 23 25 c34 37 33 90
-4 121 -26 23 -32 24 -217 24 l-189 0 0 190 c0 189 0 191 -25 215 -16 17 -35
25 -60 25 -25 0 -44 -8 -60 -25z"/>
</g>
</svg>
