<?xml version="1.0" standalone="no"?>
<!DOCTYPE svg PUBLIC "-//W3C//DTD SVG 20010904//EN"
 "http://www.w3.org/TR/2001/REC-SVG-20010904/DTD/svg10.dtd">
<svg version="1.0" xmlns="http://www.w3.org/2000/svg"
 width="225.000000pt" height="225.000000pt" viewBox="0 0 225.000000 225.000000"
 preserveAspectRatio="xMidYMid meet">

<g transform="translate(0.000000,225.000000) scale(0.100000,-0.100000)"
fill="#000000" stroke="none">
<path d="M1070 2238 c-27 -7 -148 -123 -548 -521 -282 -282 -515 -522 -518
-535 -12 -45 8 -52 147 -52 l129 0 0 -548 c0 -519 1 -550 18 -565 17 -15 68
-17 525 -17 446 0 507 2 521 16 19 19 20 35 4 57 -12 15 -56 17 -493 19 l-480
3 -3 550 c-1 362 -6 553 -13 560 -5 5 -50 12 -100 15 l-89 5 468 468 c287 287
475 467 486 467 12 0 98 -78 211 -190 105 -104 198 -190 206 -190 9 0 23 6 32
13 14 10 17 37 19 187 l3 175 140 0 140 0 5 -367 5 -368 100 -100 100 -100
-83 0 c-109 0 -122 -7 -122 -69 0 -31 5 -53 15 -61 20 -17 62 -5 70 20 6 19
15 20 134 20 199 0 200 14 11 205 l-140 141 0 370 c0 347 -1 372 -18 387 -27
25 -412 25 -436 1 -13 -12 -16 -41 -16 -151 l0 -137 -143 141 c-165 163 -193
178 -287 151z"/>
<path d="M762 1108 c-19 -19 -17 -701 2 -717 9 -8 66 -11 182 -9 l169 3 3 30
c6 47 -16 55 -155 55 l-123 0 0 280 0 280 314 0 c273 0 317 2 330 16 19 18 21
45 4 62 -17 17 -709 17 -726 0z"/>
<path d="M1610 1014 c-96 -25 -161 -64 -236 -138 -202 -202 -207 -504 -12
-712 197 -211 529 -215 734 -10 122 122 176 294 142 455 -9 43 -29 105 -44
137 -37 77 -150 191 -224 227 -117 56 -248 71 -360 41z m225 -89 c83 -22 147
-60 206 -122 158 -167 154 -419 -10 -584 -246 -245 -654 -111 -714 234 -35
205 105 415 314 471 71 19 132 19 204 1z"/>
<path d="M1708 739 c-15 -8 -18 -25 -18 -94 l0 -85 -85 0 c-73 0 -86 -3 -95
-19 -14 -27 -13 -37 6 -55 11 -12 36 -16 95 -16 l79 0 0 -85 c0 -73 3 -86 19
-95 27 -14 37 -13 55 6 12 11 16 36 16 95 l0 79 79 0 c59 0 84 4 95 16 19 18
20 28 6 55 -9 16 -22 19 -95 19 l-85 0 0 79 c0 100 -22 130 -72 100z"/>
</g>
</svg>
