<?xml version="1.0" standalone="no"?>
<!DOCTYPE svg PUBLIC "-//W3C//DTD SVG 20010904//EN"
 "http://www.w3.org/TR/2001/REC-SVG-20010904/DTD/svg10.dtd">
<svg version="1.0" xmlns="http://www.w3.org/2000/svg"
 width="225.000000pt" height="225.000000pt" viewBox="0 0 225.000000 225.000000"
 preserveAspectRatio="xMidYMid meet">

<g transform="translate(0.000000,225.000000) scale(0.100000,-0.100000)"
fill="#000000" stroke="none">
<path d="M682 1909 c-51 -38 -82 -68 -82 -80 0 -22 153 -142 177 -137 9 2 21
11 27 21 9 15 5 23 -24 47 l-35 29 520 1 519 0 -33 -30 c-34 -32 -36 -46 -8
-64 20 -13 35 -4 126 66 37 29 61 56 61 67 0 20 -152 141 -176 141 -8 0 -19
-10 -25 -22 -11 -20 -8 -25 27 -55 l39 -33 -529 0 -529 0 39 34 c33 29 37 37
28 53 -19 31 -37 26 -122 -38z"/>
<path d="M341 1568 c-64 -85 -69 -103 -38 -122 16 -9 24 -5 53 28 l34 39 0
-529 0 -529 -33 39 c-30 35 -35 38 -55 27 -12 -6 -22 -17 -22 -25 0 -24 121
-176 141 -176 11 0 38 24 67 61 70 91 79 106 66 126 -18 28 -32 26 -64 -8
l-30 -33 0 519 1 520 29 -35 c24 -29 32 -33 47 -24 10 6 19 18 21 27 5 24
-115 177 -137 177 -12 0 -42 -31 -80 -82z"/>
<path d="M605 1638 c-3 -7 -4 -305 -3 -663 l3 -650 660 0 660 0 0 660 0 660
-658 3 c-521 2 -659 0 -662 -10z m1255 -477 l0 -418 -82 -5 c-106 -6 -175 -35
-228 -95 -58 -66 -89 -180 -58 -211 8 -8 65 -12 190 -12 152 0 178 -2 178 -15
0 -13 -73 -15 -595 -15 l-595 0 0 595 0 595 595 0 595 0 0 -419z m0 -581 l0
-90 -155 0 c-101 0 -155 4 -155 10 0 21 39 86 68 113 40 39 94 56 175 57 l67
0 0 -90z"/>
<path d="M1380 1495 c-25 -30 0 -50 69 -53 52 -3 61 -6 61 -22 0 -17 -9 -19
-67 -22 l-68 -3 -3 -68 c-2 -42 2 -74 9 -83 17 -21 172 -20 190 2 24 29 -1 49
-70 52 -52 3 -61 6 -61 22 0 17 9 19 68 22 l67 3 0 80 0 80 -91 3 c-74 2 -93
0 -104 -13z"/>
<path d="M924 1217 c-2 -7 -3 -116 -2 -242 l3 -230 25 0 25 0 5 164 5 165 53
-86 c61 -100 77 -116 100 -102 9 6 41 50 72 99 l55 88 5 -164 5 -164 25 0 25
0 0 240 c0 239 0 240 -22 243 -18 3 -34 -18 -99 -122 -67 -109 -79 -123 -89
-108 -7 9 -42 65 -79 125 -49 76 -73 107 -87 107 -11 0 -22 -6 -25 -13z"/>
</g>
</svg>
