<?xml version="1.0" standalone="no"?>
<!DOCTYPE svg PUBLIC "-//W3C//DTD SVG 20010904//EN"
 "http://www.w3.org/TR/2001/REC-SVG-20010904/DTD/svg10.dtd">
<svg version="1.0" xmlns="http://www.w3.org/2000/svg"
 width="225.000000pt" height="225.000000pt" viewBox="0 0 225.000000 225.000000"
 preserveAspectRatio="xMidYMid meet">

<g transform="translate(0.000000,225.000000) scale(0.100000,-0.100000)"
fill="#000000" stroke="none">
<path d="M1601 2236 c-56 -20 -109 -72 -128 -126 -14 -40 -23 -51 -46 -56 -37
-8 -96 -68 -104 -105 -3 -19 -16 -35 -32 -44 -57 -29 -67 -106 -22 -157 l29
-33 191 0 191 0 26 26 c16 16 28 41 31 68 5 38 3 44 -33 79 -22 20 -46 52 -53
70 -15 35 -68 86 -100 97 -31 9 -26 42 12 80 77 77 193 59 243 -37 12 -22 14
-121 14 -558 l0 -530 -295 0 -294 0 -20 44 c-13 30 -34 54 -62 73 l-43 28
-236 0 -236 0 -41 -27 c-25 -16 -49 -44 -63 -72 l-22 -46 -104 0 c-116 0 -152
-11 -172 -55 -23 -50 -15 -85 28 -126 39 -38 40 -40 81 -226 23 -103 47 -199
54 -213 21 -40 67 -77 112 -91 41 -12 43 -14 43 -51 l0 -38 -253 0 c-252 0
-254 0 -275 -23 -33 -35 -31 -129 3 -162 21 -22 33 -25 98 -25 78 0 103 12 91
43 -4 12 -23 17 -77 19 l-72 3 0 40 0 40 1060 0 1060 0 0 -40 0 -40 -948 -3
-948 -2 3 -28 3 -27 953 -3 953 -2 24 24 c33 34 36 120 4 160 l-20 26 -255 0
-254 0 0 38 c0 37 2 39 43 51 45 14 91 51 112 91 7 14 31 110 54 213 41 186
42 188 81 226 30 29 40 46 40 70 0 67 -40 106 -115 113 l-30 3 -5 545 c-6 605
-2 575 -74 638 -56 49 -134 64 -205 38z m-32 -273 l36 -38 -109 -3 c-60 -1
-111 -1 -113 2 -8 8 25 49 49 63 13 7 40 12 62 13 31 0 45 -7 75 -37z m95
-125 c11 -15 12 -26 5 -40 -9 -16 -25 -18 -177 -18 -168 0 -192 5 -192 36 0 7
7 20 16 28 13 13 43 16 174 16 151 0 160 -1 174 -22z m-769 -778 c-9 -17 -18
-66 -22 -110 l-6 -80 -150 0 -150 0 5 74 c8 128 33 145 211 146 l128 0 -16
-30z m208 19 c23 -12 56 -48 57 -61 0 -5 -47 -8 -105 -8 -118 0 -129 8 -74 54
33 28 84 34 122 15z m-593 -169 l0 -40 -105 0 c-95 0 -105 2 -115 21 -9 16 -8
25 6 40 15 16 31 19 116 19 l98 0 0 -40z m1444 21 c14 -15 15 -24 6 -40 -11
-21 -14 -21 -515 -21 l-505 0 0 40 0 40 498 0 c479 0 500 -1 516 -19z m-1444
-171 l0 -40 -64 0 c-58 0 -64 2 -70 23 -14 54 -11 57 64 57 l70 0 0 -40z m360
0 l0 -40 -150 0 -150 0 0 40 0 40 150 0 150 0 0 -40z m1010 23 c0 -10 -3 -28
-6 -40 -6 -23 -9 -23 -169 -23 -170 0 -194 -6 -179 -44 5 -14 28 -16 165 -16
185 0 170 15 135 -139 -20 -90 -28 -109 -55 -133 l-31 -28 -615 0 -615 0 -31
28 c-27 24 -35 43 -55 133 -33 145 -35 139 31 139 l55 0 0 -54 c0 -47 4 -57
26 -75 25 -19 40 -21 191 -21 161 0 164 0 188 25 20 19 25 34 25 75 l0 50 256
0 255 0 -3 28 -3 27 -252 3 -253 2 0 40 0 40 470 0 c441 0 470 -1 470 -17z
m-1010 -168 l0 -46 -147 3 -148 3 -3 28 c-7 56 -5 57 153 57 l145 0 0 -45z
m-154 -342 c-18 -65 -15 -63 -62 -63 l-44 0 0 40 0 40 56 0 c48 0 55 -2 50
-17z m754 8 c0 -5 3 -23 6 -40 l7 -31 -357 0 c-197 0 -356 4 -356 9 0 5 3 23
6 40 l7 31 343 0 c190 0 344 -4 344 -9z m170 -31 l0 -40 -44 0 c-47 0 -44 -2
-62 63 -5 15 2 17 50 17 l56 0 0 -40z"/>
<path d="M387 2082 c-15 -16 -17 -46 -17 -215 l0 -197 -49 0 c-34 0 -56 -6
-75 -21 -23 -18 -26 -27 -26 -85 0 -110 -23 -104 399 -104 l360 0 15 22 c10
15 16 45 16 84 0 56 -3 65 -26 83 -18 14 -41 21 -70 21 l-43 0 -3 159 c-4 194
-7 201 -102 201 -105 0 -106 -2 -106 -196 l0 -164 -45 0 -45 0 0 198 c0 236 2
232 -102 232 -50 0 -69 -4 -81 -18z m123 -82 l0 -40 -40 0 -40 0 0 40 0 40 40
0 40 0 0 -40z m290 -72 l0 -43 -37 1 c-37 1 -38 2 -41 43 l-3 41 40 0 41 0 0
-42z m-290 -148 l0 -110 -40 0 -40 0 0 110 0 110 40 0 40 0 0 -110z m290 -35
l0 -75 -40 0 -40 0 0 75 0 75 40 0 40 0 0 -75z m150 -185 l0 -40 -335 0 -335
0 0 40 0 40 335 0 335 0 0 -40z"/>
<path d="M1322 1618 c-26 -26 -10 -128 19 -128 19 0 39 35 39 66 0 61 -29 91
-58 62z"/>
<path d="M1467 1624 c-4 -4 -7 -33 -7 -65 0 -43 4 -58 16 -63 31 -12 45 13 42
73 -3 48 -6 56 -23 59 -12 2 -24 0 -28 -4z"/>
<path d="M1612 1618 c-7 -7 -12 -33 -12 -60 0 -36 4 -50 19 -58 29 -15 51 12
51 64 0 41 -13 66 -35 66 -6 0 -16 -5 -23 -12z"/>
</g>
</svg>
