<?xml version="1.0" standalone="no"?>
<!DOCTYPE svg PUBLIC "-//W3C//DTD SVG 20010904//EN"
 "http://www.w3.org/TR/2001/REC-SVG-20010904/DTD/svg10.dtd">
<svg version="1.0" xmlns="http://www.w3.org/2000/svg"
 width="404.000000pt" height="404.000000pt" viewBox="0 0 404.000000 404.000000"
 preserveAspectRatio="xMidYMid meet">

<g transform="translate(0.000000,404.000000) scale(0.100000,-0.100000)"
fill="#000000" stroke="none">
<path d="M675 3891 c-77 -35 -105 -92 -105 -210 l0 -79 -97 -4 c-152 -6 -247
-59 -309 -170 l-29 -53 0 -1355 0 -1355 23 -43 c35 -66 88 -119 150 -149 l57
-28 1102 -5 1102 -5 31 -47 c51 -77 179 -190 267 -236 122 -63 216 -86 353
-86 297 1 544 154 679 421 54 108 75 203 74 333 -1 140 -23 234 -85 353 -53
102 -190 246 -285 299 l-63 34 -2 920 c-3 1033 2 966 -79 1058 -73 83 -155
116 -291 116 l-76 0 -4 98 c-3 90 -5 102 -31 135 -16 21 -46 46 -67 57 -80 41
-181 17 -237 -57 -26 -33 -28 -45 -31 -135 l-4 -98 -159 0 -159 0 0 73 c0 93
-12 134 -52 176 -59 63 -145 79 -223 41 -74 -36 -105 -100 -105 -216 l0 -74
-190 0 -190 0 0 85 c0 95 -18 147 -65 183 -67 53 -171 55 -233 5 -60 -48 -75
-85 -80 -185 l-4 -88 -154 0 -154 0 0 78 c0 87 -19 140 -66 184 -55 51 -136
63 -209 29z m108 -112 c12 -7 25 -17 29 -23 4 -6 8 -107 8 -223 0 -200 -1
-214 -20 -233 -24 -24 -48 -25 -78 -4 -22 15 -22 19 -22 233 0 237 2 246 58
260 2 1 13 -4 25 -10z m712 -14 c25 -24 25 -25 25 -230 0 -205 0 -206 -25
-230 -29 -30 -58 -32 -85 -5 -19 19 -20 33 -20 234 l0 215 26 20 c34 27 50 26
79 -4z m755 5 c19 -19 20 -33 20 -239 0 -216 0 -220 -22 -235 -30 -21 -54 -20
-78 4 -19 19 -20 33 -20 233 0 116 4 217 8 223 9 14 43 33 60 34 6 0 21 -9 32
-20z m695 -5 c25 -24 25 -25 25 -230 0 -205 0 -206 -25 -230 -29 -30 -45 -31
-79 -4 l-26 20 0 210 c0 210 0 210 25 234 13 14 31 25 40 25 9 0 27 -11 40
-25z m-2375 -377 c0 -59 6 -95 19 -124 64 -141 265 -142 335 -2 21 43 26 66
26 130 l0 78 155 0 155 0 0 -67 c0 -90 14 -137 56 -183 45 -50 81 -63 153 -58
45 3 68 11 95 32 57 43 76 91 76 191 l0 85 189 0 189 0 4 -93 c5 -110 25 -153
93 -193 87 -50 198 -25 252 58 25 36 28 53 31 135 l4 93 158 0 158 0 1 -91 c1
-96 8 -117 50 -162 36 -40 74 -58 125 -59 60 -1 107 17 144 55 43 44 52 75 52
174 l0 85 99 -4 c119 -4 157 -25 196 -102 24 -47 25 -59 25 -223 l0 -173
-1580 0 -1580 0 0 158 c0 179 13 242 57 284 45 43 90 57 181 58 l82 0 0 -82z
m2840 -1194 c0 -580 -2 -646 -16 -640 -42 16 -157 27 -226 21 l-78 -6 0 173
c0 135 -3 179 -14 194 -13 17 -30 19 -212 22 -109 2 -208 1 -220 -2 -52 -13
-54 -21 -54 -252 0 -261 -3 -254 119 -254 l79 0 -96 -97 c-144 -145 -210 -286
-228 -485 -5 -66 9 -193 32 -276 l6 -22 -1065 2 -1065 3 -39 31 c-21 17 -47
46 -58 65 -20 33 -20 54 -23 1102 l-2 1067 1580 0 1580 0 0 -646z m-440 -489
l0 -125 -123 0 c-68 0 -126 2 -128 4 -2 2 -3 59 -1 125 l3 121 125 0 124 0 0
-125z m385 -270 c215 -45 400 -215 468 -430 17 -55 22 -94 22 -185 0 -91 -5
-130 -22 -185 -63 -198 -217 -351 -423 -421 -83 -28 -271 -27 -365 3 -160 51
-301 169 -374 315 -240 477 171 1012 694 903z"/>
<path d="M532 2634 c-22 -15 -22 -19 -22 -234 0 -185 2 -221 16 -234 13 -14
49 -16 233 -16 198 0 219 2 234 18 15 16 17 47 17 230 0 199 -1 213 -20 232
-19 19 -33 20 -228 20 -172 0 -211 -3 -230 -16z m354 -236 l-1 -123 -127 -3
-128 -3 0 126 0 125 128 0 129 0 -1 -122z"/>
<path d="M1220 2630 c-19 -19 -20 -33 -20 -228 0 -172 3 -211 16 -230 15 -22
19 -22 238 -22 196 0 225 2 237 17 11 12 15 66 17 222 3 198 2 208 -18 234
l-21 27 -215 0 c-201 0 -215 -1 -234 -20z m360 -235 l0 -125 -125 0 -125 0 0
125 0 125 125 0 125 0 0 -125z"/>
<path d="M1910 2623 c-20 -26 -21 -36 -18 -234 2 -156 6 -210 17 -222 12 -15
41 -17 236 -17 202 0 223 2 238 18 15 16 17 47 17 230 0 199 -1 213 -20 232
-19 19 -33 20 -234 20 l-215 0 -21 -27z m360 -228 l0 -125 -125 0 -125 0 0
125 0 125 125 0 125 0 0 -125z"/>
<path d="M2610 2630 c-19 -19 -20 -33 -20 -233 0 -195 2 -215 18 -230 16 -15
48 -17 235 -17 183 0 218 2 231 16 14 13 16 49 16 234 0 215 0 219 -22 234
-19 13 -58 16 -230 16 -195 0 -209 -1 -228 -20z m360 -235 l0 -126 -127 3
c-125 3 -127 3 -126 26 0 12 1 67 2 122 l1 100 125 0 125 0 0 -125z"/>
<path d="M550 1953 c-37 -13 -40 -32 -40 -254 0 -214 0 -218 22 -233 19 -13
58 -16 230 -16 195 0 209 1 228 20 19 19 20 33 20 234 l0 215 -26 20 c-25 20
-39 21 -223 20 -108 0 -203 -3 -211 -6z m335 -248 l0 -120 -127 -3 -128 -3 0
126 0 126 128 -3 127 -3 0 -120z"/>
<path d="M1226 1939 l-26 -20 0 -215 c0 -201 1 -215 20 -234 19 -19 33 -20
229 -20 281 0 256 -24 256 255 0 279 24 255 -250 255 -190 0 -204 -1 -229 -21z
m354 -234 l0 -125 -125 0 -125 0 0 125 0 125 125 0 125 0 0 -125z"/>
<path d="M1933 1950 c-39 -16 -43 -40 -43 -250 0 -270 -21 -250 260 -250 197
0 211 1 230 20 19 19 20 33 20 234 l0 215 -26 20 c-25 20 -39 21 -223 20 -108
0 -206 -4 -218 -9z m337 -245 l0 -125 -125 0 -125 0 0 125 0 125 125 0 125 0
0 -125z"/>
<path d="M527 1242 c-15 -16 -17 -48 -17 -235 0 -183 2 -218 16 -231 13 -14
49 -16 233 -16 198 0 219 2 234 18 15 16 17 47 17 230 0 199 -1 213 -20 232
-19 19 -33 20 -233 20 -195 0 -215 -2 -230 -18z m356 -116 c2 -6 4 -63 3 -126
l-1 -115 -127 -3 -128 -3 0 125 0 125 48 4 c102 7 201 4 205 -7z"/>
<path d="M1220 1240 c-19 -19 -20 -33 -20 -228 0 -172 3 -211 16 -230 15 -22
19 -22 234 -22 246 0 244 0 255 73 4 23 5 119 3 213 -3 152 -5 174 -22 193
-18 20 -28 21 -233 21 -200 0 -214 -1 -233 -20z m358 -232 l3 -128 -126 0
-125 0 0 124 c0 110 2 125 18 129 9 3 64 5 122 4 l105 -2 3 -127z"/>
<path d="M1911 1234 c-20 -25 -21 -40 -21 -221 0 -189 5 -226 34 -245 6 -4
109 -8 228 -8 213 0 217 0 232 22 13 19 16 58 16 230 0 195 -1 209 -20 228
-19 19 -33 20 -234 20 l-215 0 -20 -26z m359 -225 l0 -129 -125 0 -125 0 0
124 c0 145 -16 130 148 132 l102 1 0 -128z"/>
<path d="M3183 1322 c-23 -3 -23 -4 -23 -196 0 -192 0 -193 -25 -216 -25 -24
-50 -83 -41 -98 3 -5 -46 -50 -109 -101 -63 -50 -115 -95 -115 -99 0 -4 17
-26 38 -50 l37 -43 109 87 c102 83 112 88 157 89 59 1 96 25 123 79 16 32 17
44 7 75 -6 20 -22 48 -36 61 l-25 23 0 197 0 196 -37 -1 c-21 0 -48 -1 -60 -3z"/>
</g>
</svg>
