<?xml version="1.0" standalone="no"?>
<!DOCTYPE svg PUBLIC "-//W3C//DTD SVG 20010904//EN"
 "http://www.w3.org/TR/2001/REC-SVG-20010904/DTD/svg10.dtd">
<svg version="1.0" xmlns="http://www.w3.org/2000/svg"
 width="225.000000pt" height="225.000000pt" viewBox="0 0 225.000000 225.000000"
 preserveAspectRatio="xMidYMid meet">

<g transform="translate(0.000000,225.000000) scale(0.100000,-0.100000)"
fill="#000000" stroke="none">
<path d="M90 2228 c-33 -17 -51 -35 -67 -68 -22 -42 -23 -55 -23 -285 0 -230
1 -243 23 -285 16 -33 34 -51 67 -67 44 -23 50 -23 425 -23 375 0 381 0 425
23 30 14 53 36 67 62 22 38 23 50 23 290 0 240 -1 252 -23 290 -14 26 -37 48
-67 63 -44 22 -50 22 -425 22 -375 0 -381 0 -425 -22z m795 -353 l0 -230 -370
0 -370 0 -3 220 c-1 121 0 225 3 232 3 11 80 13 372 11 l368 -3 0 -230z"/>
<path d="M1310 2228 c-30 -15 -53 -37 -67 -63 l-23 -40 3 -542 c2 -529 2 -542
23 -569 11 -15 33 -37 48 -48 27 -20 39 -21 439 -21 l412 0 34 24 c18 13 42
42 52 65 17 38 19 76 19 561 0 520 0 521 -22 565 -17 33 -35 51 -68 68 -44 22
-50 22 -425 22 -375 0 -381 0 -425 -22z m795 -633 l0 -510 -370 0 -370 0 -3
500 c-1 275 0 506 3 513 3 10 83 12 372 10 l368 -3 0 -510z"/>
<path d="M110 1303 c-37 -15 -74 -49 -91 -87 -17 -38 -19 -76 -19 -561 0 -520
0 -521 23 -565 16 -33 34 -51 67 -68 44 -22 50 -22 425 -22 375 0 381 0 425
23 30 14 53 36 67 62 l23 40 -3 542 c-2 529 -2 542 -23 569 -11 15 -33 37 -48
48 -27 20 -41 21 -429 23 -221 1 -409 -1 -417 -4z m775 -648 l0 -510 -370 0
-370 0 -3 500 c-1 275 0 506 3 513 3 10 83 12 372 10 l368 -3 0 -510z"/>
<path d="M1310 728 c-30 -15 -53 -37 -67 -63 -22 -38 -23 -50 -23 -290 0 -240
1 -252 23 -290 14 -26 37 -48 67 -62 44 -23 50 -23 425 -23 375 0 381 0 425
23 33 16 51 34 68 67 21 42 22 55 22 285 0 230 -1 243 -22 285 -17 33 -35 51
-68 68 -44 22 -50 22 -425 22 -375 0 -381 0 -425 -22z m795 -353 l0 -230 -370
0 -370 0 -3 220 c-1 121 0 225 3 232 3 11 80 13 372 11 l368 -3 0 -230z"/>
</g>
</svg>
