<?xml version="1.0" standalone="no"?>
<!DOCTYPE svg PUBLIC "-//W3C//DTD SVG 20010904//EN"
 "http://www.w3.org/TR/2001/REC-SVG-20010904/DTD/svg10.dtd">
<svg version="1.0" xmlns="http://www.w3.org/2000/svg"
 width="225.000000pt" height="225.000000pt" viewBox="0 0 225.000000 225.000000"
 preserveAspectRatio="xMidYMid meet">

<g transform="translate(0.000000,225.000000) scale(0.100000,-0.100000)"
fill="#000000" stroke="none">
<path d="M1905 2234 c-46 -14 -91 -57 -566 -532 l-516 -517 -36 -183 c-53
-270 -55 -268 215 -215 l183 36 517 516 c512 512 516 516 533 575 36 125 -15
249 -127 307 -52 27 -141 33 -203 13z m145 -139 c41 -21 64 -68 57 -118 -4
-32 -17 -52 -61 -96 l-56 -56 -82 82 -83 83 50 51 c70 72 114 85 175 54z
m-235 -285 l80 -80 -389 -389 -389 -389 -101 -20 c-55 -11 -102 -19 -103 -19
-1 1 8 47 19 102 l20 100 386 388 c213 213 389 387 392 387 3 0 41 -36 85 -80z"/>
<path d="M142 1844 c-28 -14 -66 -43 -83 -65 -60 -76 -59 -65 -59 -839 0 -808
-2 -780 79 -861 81 -81 54 -79 858 -79 462 0 719 4 746 11 65 16 130 69 161
130 l26 53 0 446 c0 420 -1 448 -18 463 -25 22 -75 21 -95 -1 -15 -17 -17 -62
-18 -433 0 -293 -4 -424 -12 -449 -7 -19 -27 -44 -46 -57 l-34 -23 -709 0
c-780 0 -744 -3 -782 60 -14 25 -16 98 -16 737 0 542 3 714 13 732 6 13 25 34
40 45 28 20 40 21 460 24 477 3 467 2 467 67 0 67 12 65 -481 65 l-445 0 -52
-26z"/>
</g>
</svg>
