<?xml version="1.0" standalone="no"?>
<!DOCTYPE svg PUBLIC "-//W3C//DTD SVG 20010904//EN"
 "http://www.w3.org/TR/2001/REC-SVG-20010904/DTD/svg10.dtd">
<svg version="1.0" xmlns="http://www.w3.org/2000/svg"
 width="225.000000pt" height="225.000000pt" viewBox="0 0 225.000000 225.000000"
 preserveAspectRatio="xMidYMid meet">

<g transform="translate(0.000000,225.000000) scale(0.100000,-0.100000)"
fill="#000000" stroke="none">
<path d="M1345 2031 c-84 -21 -170 -94 -197 -167 l-12 -34 -428 0 -428 0 0
-70 0 -70 428 0 427 0 18 -44 c10 -24 34 -61 54 -81 134 -138 364 -102 448 70
l27 55 144 0 144 0 0 70 0 70 -147 0 -148 0 -18 45 c-47 113 -191 185 -312
156z m119 -145 c95 -40 111 -164 30 -236 -86 -75 -227 -10 -227 105 0 105 99
172 197 131z"/>
<path d="M722 1374 c-59 -29 -107 -79 -134 -141 l-19 -43 -144 0 -145 0 0 -65
0 -65 145 0 144 0 19 -43 c47 -107 140 -167 256 -167 116 1 203 54 251 156
l26 54 424 0 425 0 0 65 0 65 -425 0 -424 0 -26 54 c-48 102 -135 155 -251
156 -56 0 -81 -5 -122 -26z m165 -115 c71 -26 112 -102 93 -171 -13 -46 -66
-93 -114 -102 -56 -11 -123 25 -147 78 -23 52 -23 71 1 124 15 33 29 47 62 62
50 23 66 24 105 9z"/>
<path d="M1294 746 c-63 -29 -117 -84 -141 -142 l-18 -44 -427 0 -428 0 0 -70
0 -70 428 0 428 0 12 -33 c30 -84 131 -160 229 -173 109 -14 238 60 280 161
l18 45 148 0 147 0 0 70 0 70 -144 0 -144 0 -26 55 c-66 134 -228 193 -362
131z m200 -146 c63 -56 71 -131 21 -196 -68 -89 -214 -58 -244 52 -25 94 40
174 141 174 38 0 54 -6 82 -30z"/>
</g>
</svg>
