<?xml version="1.0" standalone="no"?>
<!DOCTYPE svg PUBLIC "-//W3C//DTD SVG 20010904//EN"
 "http://www.w3.org/TR/2001/REC-SVG-20010904/DTD/svg10.dtd">
<svg version="1.0" xmlns="http://www.w3.org/2000/svg"
 width="297.000000pt" height="170.000000pt" viewBox="0 0 297.000000 170.000000"
 preserveAspectRatio="xMidYMid meet">

<g transform="translate(0.000000,170.000000) scale(0.100000,-0.100000)"
fill="#000000" stroke="none">
<path d="M1675 1678 c-62 -34 -92 -93 -80 -156 6 -31 44 -75 253 -284 l246
-248 -794 0 c-776 0 -796 -1 -828 -20 -97 -59 -93 -192 8 -242 32 -17 93 -18
825 -18 l789 0 -246 -247 c-209 -211 -247 -254 -253 -285 -20 -108 86 -198
187 -159 26 10 769 752 780 779 12 32 8 97 -8 122 -24 36 -692 707 -738 741
-42 31 -103 39 -141 17z"/>
<path d="M94 201 c3 -5 -1 -12 -10 -15 -18 -7 -10 -26 12 -26 8 0 14 10 14 25
0 14 -5 25 -11 25 -5 0 -8 -4 -5 -9z"/>
<path d="M137 203 c-13 -12 -7 -33 8 -33 8 0 15 -5 15 -11 0 -6 -7 -8 -17 -4
-14 5 -15 3 -6 -6 6 -6 16 -8 22 -5 16 10 13 36 -4 36 -8 0 -15 5 -15 11 0 6
7 8 16 5 8 -3 12 -2 9 4 -7 12 -19 13 -28 3z"/>
<path d="M210 175 c0 -14 4 -25 9 -25 4 0 6 11 3 25 -2 14 -6 25 -8 25 -2 0
-4 -11 -4 -25z"/>
<path d="M241 173 c1 -17 3 -21 6 -10 6 24 21 21 26 -5 l4 -23 2 22 c0 13 -7
27 -19 33 -18 10 -20 8 -19 -17z"/>
<path d="M447 192 c-2 -4 -1 -18 4 -32 l7 -25 2 25 c1 25 1 25 10 3 12 -31 19
-29 16 4 -3 24 -30 42 -39 25z"/>
<path d="M181 173 c-1 -12 4 -25 9 -28 12 -7 12 2 0 30 -8 19 -9 19 -9 -2z"/>
<path d="M293 174 c-7 -18 11 -39 26 -30 17 11 13 46 -4 46 -9 0 -18 -7 -22
-16z m27 -9 c0 -8 -4 -15 -10 -15 -5 0 -10 7 -10 15 0 8 5 15 10 15 6 0 10 -7
10 -15z"/>
<path d="M341 173 c-1 -12 4 -25 9 -28 12 -7 12 2 0 30 -8 19 -9 19 -9 -2z"/>
<path d="M372 170 c0 -14 2 -19 5 -12 2 6 2 18 0 25 -3 6 -5 1 -5 -13z"/>
<path d="M397 176 c-3 -8 0 -19 7 -25 18 -15 28 -1 13 17 -9 13 -9 14 1 8 6
-4 12 -2 12 3 0 16 -27 13 -33 -3z"/>
<path d="M500 171 c0 -25 18 -37 33 -22 9 9 8 11 -5 6 -13 -5 -18 -2 -18 10 0
11 5 15 16 11 8 -3 12 -2 9 4 -11 17 -35 11 -35 -9z"/>
<path d="M565 160 c0 -16 3 -30 8 -30 4 0 7 11 7 25 0 29 16 34 24 8 4 -14 4
-14 3 2 -1 11 -11 21 -22 23 -16 2 -20 -3 -20 -28z"/>
<path d="M622 170 c0 -14 2 -19 5 -12 2 6 2 18 0 25 -3 6 -5 1 -5 -13z"/>
<path d="M643 175 c-3 -9 -3 -19 1 -22 3 -4 6 2 6 11 0 12 5 16 16 12 8 -3 12
-2 9 4 -9 15 -25 12 -32 -5z"/>
<path d="M694 168 c3 -23 18 -28 24 -9 2 6 -2 11 -10 11 -10 0 -9 3 2 10 13 8
12 10 -2 10 -13 0 -17 -6 -14 -22z"/>
</g>
</svg>
