<?xml version="1.0" standalone="no"?>
<!DOCTYPE svg PUBLIC "-//W3C//DTD SVG 20010904//EN"
 "http://www.w3.org/TR/2001/REC-SVG-20010904/DTD/svg10.dtd">
<svg version="1.0" xmlns="http://www.w3.org/2000/svg"
 width="225.000000pt" height="225.000000pt" viewBox="0 0 225.000000 225.000000"
 preserveAspectRatio="xMidYMid meet">

<g transform="translate(0.000000,225.000000) scale(0.100000,-0.100000)"
fill="#000000" stroke="none">
<path d="M232 2164 c-58 -22 -126 -92 -147 -153 -13 -41 -15 -90 -13 -308 3
-224 5 -263 21 -294 26 -52 75 -99 132 -125 48 -23 59 -24 305 -24 247 0 256
1 305 24 60 29 107 76 134 136 19 41 21 65 21 300 0 247 -1 257 -24 305 -26
57 -73 106 -125 132 -32 16 -69 18 -301 20 -216 2 -273 -1 -308 -13z"/>
<path d="M1432 2167 c-49 -15 -122 -85 -148 -142 -23 -48 -24 -58 -24 -305 0
-247 1 -256 24 -305 29 -60 76 -107 136 -134 41 -19 65 -21 300 -21 247 0 257
1 305 24 57 26 106 73 132 125 16 31 18 70 21 294 3 302 -2 329 -74 401 -71
71 -97 76 -388 75 -145 -1 -265 -5 -284 -12z"/>
<path d="M225 966 c-57 -26 -106 -73 -132 -125 -16 -31 -18 -70 -21 -294 -3
-302 2 -329 74 -401 70 -70 98 -76 382 -76 159 0 258 4 284 12 55 16 126 83
154 143 23 48 24 58 24 305 0 235 -2 259 -21 300 -27 60 -74 107 -134 136 -49
23 -58 24 -305 24 -246 0 -257 -1 -305 -24z"/>
<path d="M1420 969 c-60 -27 -107 -74 -136 -134 -23 -49 -24 -58 -24 -305 0
-246 1 -257 24 -305 26 -57 73 -106 125 -132 31 -16 70 -18 294 -21 302 -3
329 2 401 74 72 72 77 99 74 401 -3 224 -5 263 -21 294 -26 52 -75 99 -132
125 -48 23 -58 24 -305 24 -235 0 -259 -2 -300 -21z"/>
</g>
</svg>
