<?xml version="1.0" standalone="no"?>
<!DOCTYPE svg PUBLIC "-//W3C//DTD SVG 20010904//EN"
 "http://www.w3.org/TR/2001/REC-SVG-20010904/DTD/svg10.dtd">
<svg version="1.0" xmlns="http://www.w3.org/2000/svg"
 width="225.000000pt" height="225.000000pt" viewBox="0 0 225.000000 225.000000"
 preserveAspectRatio="xMidYMid meet">

<g transform="translate(0.000000,225.000000) scale(0.100000,-0.100000)"
fill="#000000" stroke="none">
<path d="M1347 2049 c-27 -16 -39 -55 -25 -84 12 -27 16 -28 113 -45 129 -22
241 -111 286 -228 50 -127 21 -274 -72 -377 -61 -66 -129 -101 -233 -119 -42
-7 -82 -18 -88 -24 -6 -6 -11 -26 -11 -43 0 -48 32 -69 103 -69 144 0 327 -79
448 -194 131 -125 205 -276 222 -456 7 -79 13 -98 31 -112 30 -25 56 -22 85 7
25 25 25 29 19 103 -22 238 -132 448 -313 597 -55 47 -179 119 -232 137 -8 2
12 28 49 65 111 112 166 271 143 420 -37 233 -213 400 -452 427 -33 4 -62 2
-73 -5z"/>
<path d="M764 1955 c-253 -55 -423 -302 -385 -557 16 -104 69 -208 144 -281
32 -32 57 -59 55 -60 -1 -1 -41 -21 -88 -44 -266 -132 -454 -419 -463 -706 -2
-73 0 -80 22 -98 17 -14 33 -18 50 -14 45 11 54 29 61 124 15 176 91 334 221
457 132 125 273 184 456 192 141 6 231 -13 356 -75 75 -38 107 -61 177 -132
130 -131 193 -266 210 -448 8 -94 21 -116 69 -116 57 0 64 16 59 128 -14 285
-195 558 -457 687 -47 24 -88 44 -90 45 -2 2 23 30 57 63 74 74 117 156 139
268 15 75 15 89 0 164 -9 45 -30 111 -48 146 -61 125 -195 227 -336 257 -82
18 -129 18 -209 0z m221 -141 c101 -31 184 -113 226 -223 29 -76 23 -203 -11
-276 -31 -64 -111 -144 -175 -175 -72 -36 -207 -40 -287 -10 -157 59 -260 240
-228 402 15 80 41 129 97 189 98 105 231 138 378 93z"/>
</g>
</svg>
