<?xml version="1.0" standalone="no"?>
<!DOCTYPE svg PUBLIC "-//W3C//DTD SVG 20010904//EN"
 "http://www.w3.org/TR/2001/REC-SVG-20010904/DTD/svg10.dtd">
<svg version="1.0" xmlns="http://www.w3.org/2000/svg"
 width="96.000000pt" height="96.000000pt" viewBox="0 0 96.000000 96.000000"
 preserveAspectRatio="xMidYMid meet">

<g transform="translate(0.000000,96.000000) scale(0.100000,-0.100000)"
fill="#000000" stroke="none">
<path d="M261 696 c-204 -204 -226 -235 -177 -244 13 -3 73 50 207 184 l189
189 189 -189 c134 -134 194 -187 207 -184 49 9 27 40 -177 244 -112 112 -211
204 -219 204 -8 0 -107 -92 -219 -204z"/>
<path d="M154 406 c-3 -8 -4 -68 -2 -133 3 -103 6 -122 25 -149 42 -59 68 -64
303 -64 235 0 261 5 303 64 20 28 22 43 22 161 l0 130 -25 0 -25 0 -5 -123
c-5 -120 -6 -124 -33 -148 -28 -24 -31 -24 -237 -24 -206 0 -209 0 -237 24
-27 24 -28 28 -33 148 -5 118 -6 123 -28 126 -13 2 -24 -3 -28 -12z"/>
</g>
</svg>
