<?xml version="1.0" standalone="no"?>
<!DOCTYPE svg PUBLIC "-//W3C//DTD SVG 20010904//EN"
 "http://www.w3.org/TR/2001/REC-SVG-20010904/DTD/svg10.dtd">
<svg version="1.0" xmlns="http://www.w3.org/2000/svg"
 width="225.000000pt" height="225.000000pt" viewBox="0 0 225.000000 225.000000"
 preserveAspectRatio="xMidYMid meet">

<g transform="translate(0.000000,225.000000) scale(0.100000,-0.100000)"
fill="#000000" stroke="none">
<path d="M257 2149 c-20 -15 -28 -33 -33 -70 -5 -39 -12 -52 -28 -59 -53 -20
-51 21 -56 -884 l-5 -841 -38 -6 c-58 -9 -92 -48 -92 -105 0 -39 5 -50 33 -75
l32 -29 1055 0 1055 0 32 29 c28 25 33 36 33 75 0 57 -34 96 -92 105 l-38 6
-5 285 -5 285 -25 0 -25 0 -5 -285 -5 -285 -347 -3 -348 -2 0 450 0 450 344 0
c304 0 345 -2 350 -16 3 -9 6 -58 6 -109 0 -77 3 -94 16 -99 35 -13 44 12 44
121 0 179 15 173 -425 173 l-335 0 0 303 c0 329 -1 337 -57 372 -29 18 -32 25
-33 68 0 53 -28 92 -72 101 -30 7 -810 66 -864 66 -26 0 -51 -7 -67 -21z m557
-79 c271 -21 371 -32 377 -42 5 -7 8 -26 7 -43 -3 -28 -5 -30 -43 -28 -22 2
-214 16 -427 33 -212 16 -398 30 -412 30 -23 0 -26 4 -26 38 0 21 3 42 8 46 4
4 39 5 77 1 39 -3 236 -19 439 -35z m-59 -146 c264 -21 490 -41 503 -45 l22
-9 0 -790 0 -790 -45 0 -45 0 0 243 c0 203 -3 246 -16 265 -15 21 -21 22 -185
22 -98 0 -178 -4 -190 -10 -17 -10 -19 -22 -19 -146 0 -111 3 -136 15 -140 35
-14 45 14 45 127 l0 109 140 0 140 0 0 -235 0 -235 -140 0 -140 0 0 58 c0 65
-9 85 -36 80 -16 -3 -20 -15 -24 -68 l-5 -65 -285 0 -285 0 -3 820 c-1 451 0
826 3 833 6 17 14 17 550 -24z m1419 -1716 c13 -19 14 -25 2 -43 -13 -20 -17
-20 -1051 -20 -1034 0 -1038 0 -1051 20 -12 18 -11 24 2 43 l15 22 1034 0
1034 0 15 -22z"/>
<path d="M297 1732 c-21 -23 -24 -161 -5 -180 8 -8 47 -12 108 -12 61 0 100 4
108 12 7 7 12 42 12 88 0 103 -8 110 -122 110 -70 0 -88 -3 -101 -18z m161
-89 l3 -43 -60 0 -61 0 0 38 c0 21 3 42 7 46 4 4 30 6 58 4 l50 -3 3 -42z"/>
<path d="M627 1732 c-12 -13 -17 -37 -17 -86 0 -104 3 -106 119 -106 122 0
126 4 126 107 0 96 -8 103 -125 103 -71 0 -90 -3 -103 -18z m163 -87 l0 -45
-60 0 -60 0 0 38 c0 21 3 42 7 45 3 4 30 7 60 7 l53 0 0 -45z"/>
<path d="M960 1730 c-26 -26 -28 -133 -4 -168 14 -20 23 -22 108 -22 117 0
126 7 126 103 0 95 -14 107 -125 107 -72 0 -88 -3 -105 -20z m160 -85 l0 -45
-55 0 -55 0 0 45 0 45 55 0 55 0 0 -45z"/>
<path d="M290 1431 c-5 -11 -10 -51 -10 -90 0 -95 7 -101 120 -101 114 0 120
5 120 109 0 46 -5 82 -12 89 -8 8 -47 12 -110 12 -86 0 -98 -2 -108 -19z m170
-86 l0 -45 -60 0 -60 0 0 45 0 45 60 0 60 0 0 -45z"/>
<path d="M627 1432 c-13 -14 -17 -37 -17 -89 0 -96 9 -103 127 -103 112 0 118
5 118 105 0 100 -6 105 -120 105 -76 0 -95 -3 -108 -18z m163 -87 l0 -46 -57
3 -58 3 -3 43 -3 42 60 0 61 0 0 -45z"/>
<path d="M956 1428 c-10 -14 -16 -44 -16 -83 0 -96 11 -105 125 -105 114 0
125 9 125 105 0 96 -11 105 -125 105 -86 0 -95 -2 -109 -22z m164 -83 l0 -45
-55 0 -55 0 0 45 0 45 55 0 55 0 0 -45z"/>
<path d="M302 1144 c-20 -13 -22 -24 -22 -94 0 -100 11 -110 120 -110 109 0
120 10 120 110 0 100 -11 110 -120 110 -52 0 -82 -5 -98 -16z m158 -94 l0 -40
-60 0 -60 0 0 40 0 40 60 0 60 0 0 -40z"/>
<path d="M630 1140 c-16 -16 -20 -33 -20 -90 0 -98 13 -110 123 -110 45 0 87
4 93 8 22 14 34 52 34 107 0 46 -4 60 -25 80 -22 22 -32 25 -105 25 -67 0 -83
-3 -100 -20z m160 -90 l0 -40 -60 0 -60 0 0 40 0 40 60 0 60 0 0 -40z"/>
<path d="M973 1149 c-26 -14 -33 -36 -33 -111 0 -85 16 -98 125 -98 112 0 125
11 125 108 0 98 -9 106 -112 109 -46 2 -93 -2 -105 -8z m147 -99 l0 -40 -55 0
-55 0 0 40 0 40 55 0 55 0 0 -40z"/>
<path d="M297 802 c-13 -14 -17 -37 -17 -89 0 -104 -2 -103 213 -103 208 0
207 0 207 107 0 101 -4 103 -213 103 -156 0 -176 -2 -190 -18z m333 -87 l0
-45 -145 0 -145 0 0 45 0 45 145 0 145 0 0 -45z"/>
<path d="M1437 1012 c-13 -14 -17 -38 -17 -99 0 -105 4 -108 127 -108 118 0
123 5 123 116 0 101 -10 109 -131 109 -71 0 -89 -3 -102 -18z m171 -94 l3 -48
-65 0 -66 0 0 43 c0 24 3 47 7 51 4 4 32 6 63 4 l55 -3 3 -47z"/>
<path d="M1754 1022 c-23 -15 -34 -52 -34 -112 0 -51 4 -65 25 -85 21 -22 33
-25 103 -25 65 0 84 4 106 21 24 19 26 26 26 95 0 104 -11 114 -127 114 -49 0
-93 -4 -99 -8z m156 -102 l0 -50 -60 0 -60 0 0 50 0 50 60 0 60 0 0 -50z"/>
<path d="M1465 723 c-35 -8 -45 -33 -45 -113 0 -103 8 -110 127 -110 115 0
123 7 123 111 0 84 -4 93 -43 108 -28 11 -123 13 -162 4z m143 -110 l-3 -48
-62 -3 -63 -3 0 51 0 50 66 0 65 0 -3 -47z"/>
<path d="M1763 720 c-35 -14 -45 -46 -41 -122 5 -91 14 -98 130 -98 115 0 128
11 128 109 0 100 -15 115 -117 118 -43 2 -88 -1 -100 -7z m147 -110 l0 -50
-60 0 -60 0 0 50 0 50 60 0 60 0 0 -50z"/>
</g>
</svg>
