<?xml version="1.0" standalone="no"?>
<!DOCTYPE svg PUBLIC "-//W3C//DTD SVG 20010904//EN"
 "http://www.w3.org/TR/2001/REC-SVG-20010904/DTD/svg10.dtd">
<svg version="1.0" xmlns="http://www.w3.org/2000/svg"
 width="225.000000pt" height="225.000000pt" viewBox="0 0 225.000000 225.000000"
 preserveAspectRatio="xMidYMid meet">

<g transform="translate(0.000000,225.000000) scale(0.100000,-0.100000)"
fill="#000000" stroke="none">
<path d="M330 1767 c-41 -21 -50 -52 -50 -180 0 -118 0 -119 29 -148 29 -29
29 -29 156 -29 71 0 135 5 147 11 33 18 48 70 48 172 0 170 -18 187 -192 187
-71 0 -122 -5 -138 -13z"/>
<path d="M783 1756 c-28 -24 -28 -26 -31 -155 l-4 -131 30 -30 30 -30 507 0
506 0 24 25 c24 23 25 29 25 159 l0 134 -31 26 -31 26 -498 0 -499 0 -28 -24z"/>
<path d="M313 1286 l-28 -24 0 -137 0 -137 28 -24 c26 -23 35 -24 153 -24 71
0 134 5 146 11 33 18 48 70 48 174 0 104 -15 156 -48 174 -12 6 -75 11 -146
11 -118 0 -127 -1 -153 -24z"/>
<path d="M783 1286 l-28 -24 0 -137 0 -137 28 -24 28 -24 503 0 503 0 27 26
c25 26 26 29 26 159 0 130 -1 133 -26 159 l-27 26 -503 0 -503 0 -28 -24z"/>
<path d="M308 810 l-30 -30 4 -130 c4 -174 4 -174 169 -178 189 -6 209 12 209
183 0 104 -15 156 -48 174 -12 6 -76 11 -147 11 l-127 0 -30 -30z"/>
<path d="M778 810 l-30 -30 4 -131 c3 -129 3 -131 31 -155 l28 -24 499 0 498
0 31 26 31 26 0 134 c0 130 -1 136 -25 159 l-24 25 -506 0 -507 0 -30 -30z"/>
</g>
</svg>
