<?xml version="1.0" standalone="no"?>
<!DOCTYPE svg PUBLIC "-//W3C//DTD SVG 20010904//EN"
 "http://www.w3.org/TR/2001/REC-SVG-20010904/DTD/svg10.dtd">
<svg version="1.0" xmlns="http://www.w3.org/2000/svg"
 width="128.000000pt" height="128.000000pt" viewBox="0 0 128.000000 128.000000"
 preserveAspectRatio="xMidYMid meet">

<g transform="translate(0.000000,128.000000) scale(0.100000,-0.100000)"
fill="#000000" stroke="none">
<path d="M240 936 c-6 -8 -10 -25 -8 -38 l3 -23 245 0 245 0 3 24 c7 47 -13
51 -254 51 -181 0 -224 -3 -234 -14z"/>
<path d="M243 673 c-17 -6 -16 -48 1 -62 9 -8 123 -10 401 -9 357 3 389 4 399
21 8 12 8 22 0 35 -10 16 -42 17 -400 19 -214 1 -395 -1 -401 -4z"/>
<path d="M237 404 c-14 -14 -6 -54 12 -64 12 -6 105 -10 233 -10 232 0 253 4
246 51 l-3 24 -241 3 c-132 1 -243 -1 -247 -4z"/>
</g>
</svg>
