<?xml version="1.0" standalone="no"?>
<!DOCTYPE svg PUBLIC "-//W3C//DTD SVG 20010904//EN"
 "http://www.w3.org/TR/2001/REC-SVG-20010904/DTD/svg10.dtd">
<svg version="1.0" xmlns="http://www.w3.org/2000/svg"
 width="128.000000pt" height="128.000000pt" viewBox="0 0 128.000000 128.000000"
 preserveAspectRatio="xMidYMid meet">

<g transform="translate(0.000000,128.000000) scale(0.100000,-0.100000)"
fill="#000000" stroke="none">
<path d="M498 1151 c-143 -46 -258 -156 -311 -299 -20 -52 -22 -80 -25 -349
l-3 -293 480 0 481 0 0 268 c0 205 -3 281 -15 325 -44 169 -164 298 -324 347
-81 26 -205 26 -283 1z m214 -92 c117 -25 212 -99 265 -207 28 -57 28 -57 31
-294 l3 -238 -371 0 -371 0 3 237 3 238 29 59 c51 104 138 174 251 202 65 16
92 16 157 3z"/>
<path d="M514 128 c3 -19 21 -47 42 -67 34 -31 40 -33 92 -29 48 4 60 10 89
41 19 21 33 47 33 62 l0 25 -131 0 -131 0 6 -32z"/>
</g>
</svg>
