<?xml version="1.0" standalone="no"?>
<!DOCTYPE svg PUBLIC "-//W3C//DTD SVG 20010904//EN"
 "http://www.w3.org/TR/2001/REC-SVG-20010904/DTD/svg10.dtd">
<svg version="1.0" xmlns="http://www.w3.org/2000/svg"
 width="224.000000pt" height="224.000000pt" viewBox="0 0 224.000000 224.000000"
 preserveAspectRatio="xMidYMid meet">

<g transform="translate(0.000000,224.000000) scale(0.100000,-0.100000)"
fill="#000000" stroke="none">
<path d="M514 1730 c-47 -24 -78 -61 -94 -116 -8 -28 -10 -182 -8 -529 3 -488
3 -490 25 -521 13 -17 40 -40 60 -50 36 -18 74 -19 624 -22 651 -3 648 -3 683
58 20 34 21 52 24 530 2 335 0 507 -8 532 -14 50 -56 97 -105 119 -37 17 -78
19 -600 19 -542 0 -561 -1 -601 -20z m1202 -94 l34 -34 0 -356 c0 -196 -3
-356 -6 -356 -4 0 -57 42 -118 93 -61 50 -118 98 -127 105 -14 11 -31 1 -117
-73 -55 -47 -102 -85 -104 -85 -2 0 -53 54 -114 120 -60 66 -114 118 -120 116
-6 -2 -131 -88 -277 -190 -147 -102 -270 -186 -272 -186 -3 0 -5 180 -5 401 0
417 1 427 44 461 19 16 66 18 584 18 l564 0 34 -34z m-508 -739 l63 -68 106
90 c92 77 110 88 123 77 8 -7 68 -57 133 -110 l117 -97 0 -93 c0 -58 -5 -99
-13 -109 -11 -16 -55 -17 -610 -15 l-599 3 -19 24 c-14 17 -19 36 -17 64 l3
40 270 188 270 188 55 -57 c30 -31 83 -88 118 -125z"/>
<path d="M1310 1512 c-109 -54 -106 -204 5 -253 57 -25 106 -17 152 25 73 67
57 188 -30 230 -45 21 -83 20 -127 -2z m110 -82 c26 -26 25 -58 -2 -87 -40
-43 -108 -18 -108 39 0 62 67 91 110 48z"/>
</g>
</svg>
