<?xml version="1.0" standalone="no"?>
<!DOCTYPE svg PUBLIC "-//W3C//DTD SVG 20010904//EN"
 "http://www.w3.org/TR/2001/REC-SVG-20010904/DTD/svg10.dtd">
<svg version="1.0" xmlns="http://www.w3.org/2000/svg"
 width="225.000000pt" height="225.000000pt" viewBox="0 0 225.000000 225.000000"
 preserveAspectRatio="xMidYMid meet">

<g transform="translate(0.000000,225.000000) scale(0.100000,-0.100000)"
fill="#000000" stroke="none">
<path d="M1069 2241 c-116 -38 -166 -187 -96 -288 15 -21 204 -216 422 -433
l395 -395 -410 -410 c-276 -277 -414 -422 -424 -447 -63 -150 68 -300 224
-258 41 11 92 59 514 478 257 257 485 488 507 515 44 55 57 111 39 178 -11 39
-61 93 -493 527 -265 265 -498 494 -518 508 -39 27 -116 39 -160 25z"/>
<path d="M154 2151 c-92 -23 -149 -97 -148 -196 0 -37 6 -72 17 -92 9 -17 157
-179 327 -359 171 -179 310 -330 308 -334 -2 -4 -140 -152 -308 -329 -167
-177 -314 -336 -325 -354 -15 -24 -20 -49 -20 -99 0 -57 4 -72 30 -110 34 -49
102 -88 152 -88 81 0 97 14 505 444 215 226 399 428 409 448 27 52 25 134 -3
186 -30 54 -783 848 -822 866 -43 20 -86 25 -122 17z"/>
</g>
</svg>
