<?xml version="1.0" standalone="no"?>
<!DOCTYPE svg PUBLIC "-//W3C//DTD SVG 20010904//EN"
 "http://www.w3.org/TR/2001/REC-SVG-20010904/DTD/svg10.dtd">
<svg version="1.0" xmlns="http://www.w3.org/2000/svg"
 width="225.000000pt" height="225.000000pt" viewBox="0 0 225.000000 225.000000"
 preserveAspectRatio="xMidYMid meet">

<g transform="translate(0.000000,225.000000) scale(0.100000,-0.100000)"
fill="#000000" stroke="none">
<path d="M975 2239 c-429 -54 -807 -380 -929 -803 -172 -592 175 -1219 772
-1392 515 -149 1078 103 1315 588 207 422 130 922 -193 1262 -253 267 -600
390 -965 345z m318 -144 c623 -108 985 -774 738 -1355 -209 -491 -782 -728
-1275 -527 -566 231 -788 915 -465 1432 211 339 611 518 1002 450z"/>
<path d="M586 1175 c-31 -31 -27 -84 8 -107 6 -4 245 -8 531 -8 286 0 525 4
531 8 35 23 39 76 8 107 -23 23 -1055 23 -1078 0z"/>
</g>
</svg>
