<?xml version="1.0" standalone="no"?>
<!DOCTYPE svg PUBLIC "-//W3C//DTD SVG 20010904//EN"
 "http://www.w3.org/TR/2001/REC-SVG-20010904/DTD/svg10.dtd">
<svg version="1.0" xmlns="http://www.w3.org/2000/svg"
 width="225.000000pt" height="225.000000pt" viewBox="0 0 225.000000 225.000000"
 preserveAspectRatio="xMidYMid meet">

<g transform="translate(0.000000,225.000000) scale(0.100000,-0.100000)"
fill="#000000" stroke="none">
<path d="M106 1910 c-38 -12 -75 -47 -92 -87 -19 -44 -21 -812 -2 -831 9 -9
270 -12 1114 -12 929 0 1103 2 1113 14 9 10 11 124 9 419 -3 392 -4 407 -24
433 -11 15 -33 37 -48 48 -27 21 -34 21 -1034 23 -554 1 -1020 -2 -1036 -7z
m1984 -99 c0 -65 63 -61 -965 -61 -1028 0 -965 -4 -965 61 l0 29 965 0 965 0
0 -29z m-1944 -82 l26 -24 953 0 953 0 26 24 c16 15 29 41 33 64 5 35 7 37 22
22 14 -14 16 -62 19 -390 3 -366 2 -375 -17 -375 -18 0 -20 9 -23 115 -3 110
-4 116 -31 142 l-27 28 -955 0 -955 0 -27 -28 c-27 -26 -28 -32 -31 -142 -3
-106 -5 -115 -23 -115 -19 0 -20 9 -17 373 3 314 5 377 18 392 14 17 15 15 23
-22 4 -22 19 -51 33 -64z m1928 -455 c9 -8 16 -20 16 -25 0 -5 -378 -9 -965
-9 -587 0 -965 4 -965 9 0 5 7 17 16 25 14 14 114 16 949 16 835 0 935 -2 949
-16z m16 -109 l0 -25 -965 0 -965 0 0 25 0 25 965 0 965 0 0 -25z m0 -95 c0
-20 -7 -20 -965 -20 -958 0 -965 0 -965 20 0 20 7 20 965 20 958 0 965 0 965
-20z"/>
<path d="M990 1410 c0 -19 7 -20 135 -20 128 0 135 1 135 20 0 19 -7 20 -135
20 -128 0 -135 -1 -135 -20z"/>
<path d="M1850 1410 c0 -13 7 -20 20 -20 13 0 20 7 20 20 0 13 -7 20 -20 20
-13 0 -20 -7 -20 -20z"/>
<path d="M1965 1420 c-4 -7 -3 -16 3 -22 14 -14 45 -2 40 15 -6 16 -34 21 -43
7z"/>
<path d="M866 810 c-24 -60 -21 -150 8 -218 36 -87 39 -114 20 -182 -13 -46
-14 -64 -5 -73 26 -26 61 53 61 140 0 34 -9 76 -25 116 -35 85 -40 124 -21
177 21 60 20 80 -3 80 -13 0 -24 -13 -35 -40z"/>
<path d="M1094 818 c-9 -17 -18 -57 -21 -87 -5 -48 0 -69 26 -135 35 -86 39
-147 16 -203 -12 -27 -12 -39 -4 -50 31 -36 77 78 66 160 -4 23 -18 70 -32
104 -29 71 -31 122 -10 183 8 23 12 46 9 51 -11 18 -34 8 -50 -23z"/>
<path d="M1316 810 c-25 -62 -21 -154 9 -219 36 -76 40 -120 20 -186 -26 -82
8 -107 41 -29 22 53 18 146 -10 217 -35 89 -40 126 -22 177 21 60 20 80 -3 80
-13 0 -24 -13 -35 -40z"/>
</g>
</svg>
