<?xml version="1.0" standalone="no"?>
<!DOCTYPE svg PUBLIC "-//W3C//DTD SVG 20010904//EN"
 "http://www.w3.org/TR/2001/REC-SVG-20010904/DTD/svg10.dtd">
<svg version="1.0" xmlns="http://www.w3.org/2000/svg"
 width="225.000000pt" height="225.000000pt" viewBox="0 0 225.000000 225.000000"
 preserveAspectRatio="xMidYMid meet">

<g transform="translate(0.000000,225.000000) scale(0.100000,-0.100000)"
fill="#000000" stroke="none">
<path d="M338 1680 c-46 -14 -85 -48 -107 -93 -20 -40 -21 -60 -21 -288 l0
-244 -42 -23 c-24 -12 -54 -39 -68 -59 l-25 -36 -3 -317 c-3 -283 -1 -318 13
-330 30 -25 50 0 53 69 l3 61 984 0 984 0 3 -61 c3 -69 23 -94 53 -69 14 12
16 47 13 330 l-3 317 -25 36 c-14 20 -44 47 -67 59 l-43 23 0 244 c0 229 -1
248 -21 289 -13 26 -38 54 -62 70 l-41 27 -775 2 c-427 1 -788 -2 -803 -7z
m1572 -75 c56 -29 60 -50 60 -315 l0 -241 -52 3 -53 3 -5 130 c-5 137 -12 159
-56 194 -25 20 -39 21 -288 21 -238 0 -264 -2 -292 -19 -51 -31 -64 -73 -64
-210 l0 -121 -35 0 -35 0 0 121 c0 137 -13 179 -64 210 -28 17 -54 19 -292 19
-249 0 -263 -1 -288 -21 -44 -35 -51 -57 -56 -194 l-5 -130 -52 -3 -53 -3 0
241 c0 263 4 285 58 314 41 23 1529 23 1572 1z m-909 -294 c16 -20 19 -40 19
-142 l0 -119 -280 0 -280 0 0 124 c0 177 -16 168 288 164 232 -3 234 -3 253
-27z m763 8 c26 -20 26 -22 26 -145 l0 -124 -280 0 -280 0 0 116 c0 121 7 150
43 164 12 5 122 9 243 9 209 1 223 0 248 -20z m269 -340 c65 -18 77 -50 77
-211 l0 -138 -985 0 -985 0 0 138 c0 157 12 194 72 211 48 13 1772 14 1821 0z
m77 -454 l0 -35 -985 0 -985 0 0 35 0 35 985 0 985 0 0 -35z"/>
</g>
</svg>
