<?xml version="1.0" standalone="no"?>
<!DOCTYPE svg PUBLIC "-//W3C//DTD SVG 20010904//EN"
 "http://www.w3.org/TR/2001/REC-SVG-20010904/DTD/svg10.dtd">
<svg version="1.0" xmlns="http://www.w3.org/2000/svg"
 width="220.000000pt" height="230.000000pt" viewBox="0 0 220.000000 230.000000"
 preserveAspectRatio="xMidYMid meet">

<g transform="translate(0.000000,230.000000) scale(0.100000,-0.100000)"
fill="#000000" stroke="none">
<path d="M143 2186 c-20 -9 -40 -29 -49 -49 -35 -73 -41 -65 426 -532 l430
-430 -435 -435 c-406 -407 -435 -438 -435 -470 0 -77 72 -133 138 -109 15 5
219 202 455 437 l427 427 428 -428 c294 -294 436 -430 457 -435 71 -20 135 28
135 102 0 40 -4 44 -430 471 -236 237 -430 435 -430 440 0 5 194 203 430 440
426 427 430 431 430 471 0 74 -71 128 -136 104 -16 -6 -215 -197 -457 -438
l-427 -427 -433 432 c-461 462 -457 459 -524 429z"/>
</g>
</svg>
