<?xml version="1.0" standalone="no"?>
<!DOCTYPE svg PUBLIC "-//W3C//DTD SVG 20010904//EN"
 "http://www.w3.org/TR/2001/REC-SVG-20010904/DTD/svg10.dtd">
<svg version="1.0" xmlns="http://www.w3.org/2000/svg"
 width="318.000000pt" height="159.000000pt" viewBox="0 0 318.000000 159.000000"
 preserveAspectRatio="xMidYMid meet">

<g transform="translate(0.000000,159.000000) scale(0.100000,-0.100000)"
fill="#000000" stroke="none">
<path d="M1147 972 c-22 -24 -22 -67 1 -89 21 -22 227 -195 340 -286 49 -40
92 -67 106 -67 15 0 97 59 237 173 194 156 214 175 217 206 2 21 -3 40 -14 52
-36 40 -63 27 -258 -131 l-186 -150 -185 155 c-195 163 -222 177 -258 137z"/>
</g>
</svg>
