<?xml version="1.0" standalone="no"?>
<!DOCTYPE svg PUBLIC "-//W3C//DTD SVG 20010904//EN"
 "http://www.w3.org/TR/2001/REC-SVG-20010904/DTD/svg10.dtd">
<svg version="1.0" xmlns="http://www.w3.org/2000/svg"
 width="200.000000pt" height="200.000000pt" viewBox="0 0 200.000000 200.000000"
 preserveAspectRatio="xMidYMid meet">

<g transform="translate(0.000000,200.000000) scale(0.100000,-0.100000)"
fill="#000000" stroke="none">
<path d="M405 1511 c-40 -17 -60 -51 -60 -102 0 -40 5 -54 28 -76 l27 -28 610
0 610 0 27 28 c23 23 28 36 28 77 0 41 -5 54 -28 77 l-27 28 -598 2 c-328 1
-606 -2 -617 -6z"/>
<path d="M405 1091 c-40 -17 -60 -51 -60 -102 0 -40 5 -54 28 -76 l27 -28 610
0 610 0 27 28 c23 23 28 36 28 77 0 41 -5 54 -28 77 l-27 28 -598 2 c-328 1
-606 -2 -617 -6z"/>
<path d="M405 671 c-40 -17 -60 -51 -60 -102 0 -40 5 -54 28 -76 l27 -28 610
0 610 0 27 28 c23 23 28 36 28 77 0 41 -5 54 -28 77 l-27 28 -598 2 c-328 1
-606 -2 -617 -6z"/>
</g>
</svg>
