<?xml version="1.0" standalone="no"?>
<!DOCTYPE svg PUBLIC "-//W3C//DTD SVG 20010904//EN"
 "http://www.w3.org/TR/2001/REC-SVG-20010904/DTD/svg10.dtd">
<svg version="1.0" xmlns="http://www.w3.org/2000/svg"
 width="224.000000pt" height="225.000000pt" viewBox="0 0 224.000000 225.000000"
 preserveAspectRatio="xMidYMid meet">

<g transform="translate(0.000000,225.000000) scale(0.100000,-0.100000)"
fill="#000000" stroke="none">
<path d="M945 2241 c-21 -9 -878 -846 -916 -894 -30 -40 -35 -103 -11 -147 31
-57 68 -72 172 -71 l90 1 0 -276 c0 -183 4 -290 12 -316 16 -53 79 -122 130
-143 56 -22 341 -26 375 -4 50 31 56 97 14 140 l-29 29 -137 0 c-75 0 -145 5
-156 10 -18 10 -19 25 -19 323 0 184 -4 327 -10 349 -15 54 -41 68 -130 69
l-75 0 360 355 c198 195 363 353 366 352 4 -2 149 -141 322 -310 293 -286 318
-308 351 -308 53 0 91 37 91 89 0 38 -7 47 -79 120 l-78 79 1 176 c1 99 -3
193 -9 215 -13 48 -42 71 -90 71 -71 -1 -90 -37 -90 -169 0 -61 -4 -101 -10
-101 -5 0 -10 4 -10 8 0 5 -81 86 -179 180 -182 175 -209 193 -256 173z"/>
<path d="M1510 1205 c-180 -40 -342 -167 -418 -327 -47 -98 -62 -161 -62 -267
0 -157 60 -311 163 -419 224 -232 578 -253 829 -49 63 53 146 169 176 249 60
159 47 354 -31 503 -40 75 -148 190 -220 233 -128 78 -301 108 -437 77z m425
-327 c31 -37 32 -75 3 -115 -13 -16 -96 -114 -185 -216 -163 -187 -186 -206
-236 -193 -12 3 -75 59 -140 124 -101 102 -117 123 -117 151 0 43 14 68 51 87
46 23 76 11 154 -66 l70 -68 135 155 c75 87 147 161 163 168 40 17 73 8 102
-27z"/>
</g>
</svg>
