<?xml version="1.0" standalone="no"?>
<!DOCTYPE svg PUBLIC "-//W3C//DTD SVG 20010904//EN"
 "http://www.w3.org/TR/2001/REC-SVG-20010904/DTD/svg10.dtd">
<svg version="1.0" xmlns="http://www.w3.org/2000/svg"
 width="225.000000pt" height="225.000000pt" viewBox="0 0 225.000000 225.000000"
 preserveAspectRatio="xMidYMid meet">

<g transform="translate(0.000000,225.000000) scale(0.100000,-0.100000)"
fill="#000000" stroke="none">
<path d="M1088 2150 c-76 -13 -138 -81 -146 -158 l-4 -48 -76 -34 c-157 -71
-278 -197 -341 -358 -12 -31 -45 -196 -77 -385 -30 -183 -59 -347 -65 -364 -7
-22 -35 -52 -82 -91 -40 -32 -80 -73 -90 -92 -26 -51 -19 -128 17 -174 49 -64
58 -66 330 -66 l245 0 11 -42 c38 -143 165 -240 315 -240 150 0 277 97 315
240 l11 42 245 0 c272 0 281 2 330 66 36 46 43 123 17 174 -10 19 -50 60 -90
92 -47 39 -75 69 -82 91 -6 17 -35 182 -66 364 -31 187 -64 356 -76 385 -63
161 -184 287 -341 358 l-76 34 -4 48 c-11 105 -110 176 -220 158z m103 -119
c16 -16 29 -38 29 -48 0 -16 -10 -18 -95 -18 -85 0 -95 2 -95 18 0 33 54 77
95 77 27 0 44 -8 66 -29z m89 -177 c145 -41 271 -147 340 -287 39 -79 43 -96
96 -422 66 -403 72 -419 168 -495 94 -74 108 -109 61 -155 l-24 -25 -796 0
-796 0 -24 25 c-47 46 -33 81 61 155 96 76 102 92 168 495 53 325 57 343 96
422 120 243 386 360 650 287z m70 -1489 c0 -28 -38 -92 -72 -120 -47 -40 -89
-55 -153 -55 -91 0 -167 45 -205 121 -37 72 -46 69 205 69 196 0 225 -2 225
-15z"/>
</g>
</svg>
