<?xml version="1.0" standalone="no"?>
<!DOCTYPE svg PUBLIC "-//W3C//DTD SVG 20010904//EN"
 "http://www.w3.org/TR/2001/REC-SVG-20010904/DTD/svg10.dtd">
<svg version="1.0" xmlns="http://www.w3.org/2000/svg"
 width="225.000000pt" height="225.000000pt" viewBox="0 0 225.000000 225.000000"
 preserveAspectRatio="xMidYMid meet">

<g transform="translate(0.000000,225.000000) scale(0.100000,-0.100000)"
fill="#000000" stroke="none">
<path d="M1345 2186 c-28 -8 -150 -68 -272 -134 l-222 -120 -213 -4 c-181 -5
-223 -9 -279 -27 -172 -55 -307 -204 -344 -378 -23 -106 -22 -1153 1 -1233 31
-111 132 -205 246 -229 68 -15 1658 -15 1726 0 114 24 215 118 246 229 23 80
24 1127 1 1233 -40 190 -204 354 -390 388 -33 7 -65 13 -72 15 -7 2 -28 34
-47 72 -77 152 -233 229 -381 188z m192 -110 c41 -21 89 -74 77 -85 -5 -5
-148 -85 -319 -178 l-310 -168 -227 -3 c-126 -2 -228 1 -228 5 0 15 808 444
852 451 49 9 114 0 155 -22z m197 -295 c36 -71 62 -131 59 -135 -9 -9 -603 -7
-603 2 0 5 465 260 477 262 1 0 31 -58 67 -129z m-1085 45 c-2 -2 -76 -43
-164 -91 -97 -52 -180 -90 -210 -96 -27 -5 -71 -20 -97 -33 -27 -12 -48 -21
-48 -19 0 3 16 29 36 59 54 82 132 139 229 170 36 11 265 20 254 10z m1261
-32 c73 -34 130 -83 174 -148 20 -30 36 -56 36 -59 0 -2 -23 7 -50 21 -28 14
-76 27 -108 31 l-57 6 -42 80 c-23 44 -42 83 -43 88 0 14 35 7 90 -19z m117
-269 c93 -47 133 -127 133 -266 l0 -77 -202 -4 c-193 -3 -206 -5 -258 -29 -79
-37 -125 -81 -162 -157 -29 -59 -33 -75 -32 -147 1 -132 63 -231 181 -291 58
-29 59 -29 266 -32 l207 -4 0 -77 c0 -108 -21 -173 -74 -226 -24 -23 -60 -49
-82 -56 -58 -21 -1700 -21 -1758 0 -59 20 -122 89 -140 152 -22 73 -24 1000
-2 1071 19 65 59 113 119 143 l51 25 851 0 851 0 51 -25z m131 -677 l-3 -233
-160 -3 c-93 -2 -182 1 -212 8 -212 46 -258 322 -70 430 l52 30 198 0 197 0
-2 -232z"/>
<path d="M1770 973 c-100 -52 -106 -193 -9 -245 125 -67 262 79 185 197 -38
58 -116 79 -176 48z m90 -93 c24 -24 24 -29 4 -58 -18 -26 -41 -28 -66 -5 -24
22 -23 49 4 67 29 20 34 20 58 -4z"/>
</g>
</svg>
