<?xml version="1.0" standalone="no"?>
<!DOCTYPE svg PUBLIC "-//W3C//DTD SVG 20010904//EN"
 "http://www.w3.org/TR/2001/REC-SVG-20010904/DTD/svg10.dtd">
<svg version="1.0" xmlns="http://www.w3.org/2000/svg"
 width="512.000000pt" height="512.000000pt" viewBox="0 0 512.000000 512.000000"
 preserveAspectRatio="xMidYMid meet">

<g transform="translate(0.000000,512.000000) scale(0.100000,-0.100000)"
fill="#000000" stroke="none">
<path d="M2077 5101 c-128 -42 -222 -135 -262 -259 l-17 -51 -231 -3 c-223 -3
-234 -4 -282 -28 -64 -31 -141 -107 -166 -165 l-20 -44 -252 -3 c-240 -3 -254
-4 -299 -26 -60 -30 -120 -90 -150 -150 l-23 -47 -3 -2030 c-3 -2321 -12
-2097 91 -2200 106 -105 -64 -96 1752 -93 l1580 3 57 28 c67 33 111 80 147
157 l26 55 3 386 3 386 42 13 c23 6 80 29 125 51 257 119 447 348 524 629 32
119 32 355 0 475 -80 291 -289 531 -566 647 -50 20 -99 38 -108 38 -16 0 -17
49 -20 718 l-3 717 -33 67 c-39 79 -93 129 -169 158 -48 18 -78 20 -291 20
l-237 0 -29 55 c-37 71 -111 138 -182 164 -49 19 -77 21 -274 21 -203 0 -220
1 -220 18 0 36 -61 144 -110 193 -104 104 -268 145 -403 100z m232 -167 c80
-40 118 -101 136 -217 12 -76 14 -77 288 -77 146 0 258 -4 282 -11 61 -17 120
-82 134 -147 6 -29 11 -64 11 -77 l0 -25 -961 0 -961 0 4 69 c3 60 8 75 34
108 62 76 67 77 366 83 226 4 270 7 283 21 9 9 20 44 25 78 19 138 111 220
246 221 45 0 73 -6 113 -26z m-1229 -589 c0 -66 14 -100 49 -114 18 -8 342
-11 1084 -9 l1059 3 19 24 c14 17 19 39 19 87 l0 64 213 0 c201 0 215 -1 257
-22 24 -13 53 -36 64 -51 21 -28 21 -40 24 -726 l2 -698 -105 -1 -105 -2 0
556 0 555 -25 24 -24 25 -1414 0 -1414 0 -24 -26 -24 -26 0 -1815 0 -1815 28
-24 28 -24 1416 2 1415 3 19 24 c18 22 19 43 19 330 l0 306 105 -3 105 -3 0
-355 c0 -333 -1 -357 -20 -393 -11 -22 -35 -48 -53 -60 l-34 -21 -1569 0
-1568 0 -32 22 c-18 12 -40 36 -51 53 -17 29 -18 106 -21 2019 -1 1346 1 2001
8 2027 13 46 60 95 103 108 18 5 125 10 240 10 l207 1 0 -55z m2420 -963 l0
-519 -67 -28 c-293 -124 -499 -365 -575 -672 -30 -124 -30 -313 1 -437 23 -97
89 -245 142 -322 93 -136 260 -272 417 -340 l77 -33 3 -271 2 -270 -1305 0
-1305 0 0 1705 0 1705 1305 0 1305 0 0 -518z m510 -662 c271 -77 489 -300 561
-575 27 -104 29 -269 4 -375 -19 -84 -77 -215 -126 -286 -104 -152 -286 -274
-477 -321 -93 -23 -276 -22 -367 1 -349 90 -597 389 -613 742 -18 404 248 745
648 830 91 19 273 11 370 -16z"/>
<path d="M1176 3549 c-34 -27 -37 -86 -5 -115 20 -18 53 -19 1013 -21 1064 -3
1025 -5 1055 48 19 33 1 81 -35 98 -18 8 -300 11 -1013 11 -985 0 -988 0
-1015 -21z"/>
<path d="M1176 3029 c-33 -26 -36 -79 -6 -109 20 -20 33 -20 920 -20 l899 0
21 22 c27 30 26 73 -5 103 l-24 25 -889 0 c-885 0 -889 0 -916 -21z"/>
<path d="M1170 2510 c-12 -12 -20 -33 -20 -55 0 -22 8 -43 20 -55 20 -20 33
-20 773 -20 l754 0 21 23 c28 29 28 76 2 105 l-21 22 -754 0 c-742 0 -755 0
-775 -20z"/>
<path d="M1170 1990 c-28 -28 -26 -81 3 -108 l23 -22 636 0 c350 0 644 3 653
6 23 9 47 61 39 87 -3 12 -13 30 -22 40 -14 16 -58 17 -664 17 -635 0 -648 0
-668 -20z"/>
<path d="M1200 1493 c-56 -21 -70 -96 -24 -132 26 -21 34 -21 701 -21 l674 0
24 25 c32 31 32 66 1 102 l-24 28 -669 2 c-367 1 -675 -1 -683 -4z"/>
<path d="M1176 959 c-34 -27 -37 -86 -5 -115 20 -18 51 -19 956 -19 l935 0 19
24 c28 35 25 85 -7 110 -27 21 -31 21 -949 21 -918 0 -922 0 -949 -21z"/>
<path d="M3903 2038 l-303 -303 -113 113 c-116 116 -138 128 -187 102 -28 -15
-40 -61 -25 -96 7 -16 75 -91 152 -166 124 -123 143 -138 174 -138 31 0 60 27
376 343 301 301 343 346 343 373 0 41 -36 74 -80 74 -31 0 -59 -25 -337 -302z"/>
</g>
</svg>
